3umbra-8.ufo
<glyph name="ampersand" format="1">
  <advance width="487"/>
  <unicode hex="0026"/>
  <outline>
    <contour>
      <point x="80" y="92" type="line"/>
      <point x="47" y="92" type="line" smooth="yes"/>
      <point x="-1" y="92"/>
      <point x="-35" y="81"/>
      <point x="-35" y="43" type="curve" smooth="yes"/>
      <point x="-35" y="12"/>
      <point x="-8" y="-7"/>
      <point x="25" y="-7" type="curve" smooth="yes"/>
      <point x="48" y="-7"/>
      <point x="80" y="6"/>
      <point x="80" y="37" type="curve" smooth="yes"/>
    </contour>
    <contour>
      <point x="-10" y="240" type="curve" smooth="yes"/>
      <point x="-10" y="212"/>
      <point x="-1" y="187"/>
      <point x="47" y="187" type="curve" smooth="yes"/>
      <point x="247" y="187" type="line"/>
      <point x="247" y="92" type="line"/>
      <point x="195" y="92" type="line"/>
      <point x="199" y="76"/>
      <point x="200" y="54"/>
      <point x="200" y="10" type="curve" smooth="yes"/>
      <point x="200" y="-85"/>
      <point x="106" y="-132"/>
      <point x="17" y="-132" type="curve" smooth="yes"/>
      <point x="-70" y="-132"/>
      <point x="-175" y="-82"/>
      <point x="-175" y="35" type="curve" smooth="yes"/>
      <point x="-175" y="91"/>
      <point x="-144" y="130"/>
      <point x="-90" y="150" type="curve"/>
      <point x="-135" y="168"/>
      <point x="-161" y="201"/>
      <point x="-161" y="256" type="curve" smooth="yes"/>
      <point x="-161" y="353"/>
      <point x="-76" y="398"/>
      <point x="11" y="398" type="curve" smooth="yes"/>
      <point x="98" y="398"/>
      <point x="158" y="348"/>
      <point x="178" y="321" type="curve"/>
      <point x="138" y="231" type="line"/>
      <point x="98" y="269"/>
      <point x="60" y="278"/>
      <point x="32" y="278" type="curve" smooth="yes"/>
      <point x="4" y="278"/>
      <point x="-10" y="263"/>
    </contour>
  </outline>
</glyph>
<glyph name="parenright" format="1">
  <advance width="232"/>
  <unicode hex="0029"/>
  <outline>
    <contour>
      <point x="-120" y="434" type="line"/>
      <point x="-45" y="349"/>
      <point x="-8" y="244"/>
      <point x="-8" y="139" type="curve" smooth="yes"/>
      <point x="-8" y="34"/>
      <point x="-45" y="-71"/>
      <point x="-120" y="-156" type="curve"/>
      <point x="-210" y="-156" type="line"/>
      <point x="-160" y="-81"/>
      <point x="-136" y="29"/>
      <point x="-136" y="139" type="curve" smooth="yes"/>
      <point x="-136" y="249"/>
      <point x="-160" y="359"/>
      <point x="-210" y="434" type="curve"/>
    </contour>
  </outline>
</glyph>
<glyph name="plus" format="1">
  <advance width="560"/>
  <unicode hex="002B"/>
  <outline>
    <contour>
      <point x="-125" y="73" type="line"/>
      <point x="-125" y="183" type="line"/>
      <point x="0" y="183" type="line"/>
      <point x="0" y="303" type="line"/>
      <point x="140" y="303" type="line"/>
      <point x="140" y="183" type="line"/>
      <point x="265" y="183" type="line"/>
      <point x="265" y="73" type="line"/>
      <point x="140" y="73" type="line"/>
      <point x="140" y="-47" type="line"/>
      <point x="0" y="-47" type="line"/>
      <point x="0" y="73" type="line"/>
    </contour>
  </outline>
</glyph>
<glyph name="zero" format="1">
  <advance width="510"/>
  <unicode hex="0030"/>
  <outline>
    <contour>
      <point x="-180" y="133" type="curve" smooth="yes"/>
      <point x="-180" y="282"/>
      <point x="-110" y="403"/>
      <point x="45" y="403" type="curve" smooth="yes"/>
      <point x="200" y="403"/>
      <point x="270" y="282"/>
      <point x="270" y="133" type="curve" smooth="yes"/>
      <point x="270" y="-16"/>
      <point x="200" y="-137"/>
      <point x="45" y="-137" type="curve" smooth="yes"/>
      <point x="-110" y="-137"/>
      <point x="-180" y="-16"/>
    </contour>
    <contour>
      <point x="-35" y="133" type="curve" smooth="yes"/>
      <point x="-35" y="40"/>
      <point x="-7" y="-12"/>
      <point x="45" y="-12" type="curve" smooth="yes"/>
      <point x="97" y="-12"/>
      <point x="125" y="40"/>
      <point x="125" y="133" type="curve" smooth="yes"/>
      <point x="125" y="226"/>
      <point x="97" y="278"/>
      <point x="45" y="278" type="curve" smooth="yes"/>
      <point x="-7" y="278"/>
      <point x="-35" y="226"/>
    </contour>
  </outline>
</glyph>
<glyph name="two" format="1">
  <advance width="458"/>
  <unicode hex="0032"/>
  <outline>
    <contour>
      <point x="213" y="226" type="curve" smooth="yes"/>
      <point x="213" y="130"/>
      <point x="100" y="67"/>
      <point x="16" y="5" type="curve"/>
      <point x="210" y="5" type="line"/>
      <point x="210" y="-115" type="line"/>
      <point x="-180" y="-115" type="line"/>
      <point x="-180" y="35"/>
      <point x="68" y="158"/>
      <point x="68" y="228" type="curve" smooth="yes"/>
      <point x="68" y="249"/>
      <point x="49" y="273"/>
      <point x="1" y="273" type="curve" smooth="yes"/>
      <point x="-47" y="273"/>
      <point x="-96" y="234"/>
      <point x="-136" y="196" type="curve"/>
      <point x="-176" y="311" type="line"/>
      <point x="-136" y="358"/>
      <point x="-76" y="393"/>
      <point x="21" y="393" type="curve" smooth="yes"/>
      <point x="98" y="393"/>
      <point x="213" y="353"/>
    </contour>
  </outline>
</glyph>
<glyph name="seven" format="1">
  <advance width="455"/>
  <unicode hex="0037"/>
  <outline>
    <contour>
      <point x="225" y="383" type="line"/>
      <point x="224" y="243"/>
      <point x="47" y="190"/>
      <point x="47" y="-120" type="curve"/>
      <point x="-88" y="-118" type="line"/>
      <point x="-88" y="101"/>
      <point x="-1" y="181"/>
      <point x="58" y="263" type="curve"/>
      <point x="-185" y="263" type="line"/>
      <point x="-185" y="383" type="line"/>
    </contour>
  </outline>
</glyph>
<glyph name="eight" format="1">
  <advance width="464"/>
  <unicode hex="0038"/>
  <outline>
    <contour>
      <point x="-50" y="35" type="curve" smooth="yes"/>
      <point x="-50" y="7"/>
      <point x="-26" y="-12"/>
      <point x="22" y="-12" type="curve" smooth="yes"/>
      <point x="70" y="-12"/>
      <point x="94" y="7"/>
      <point x="94" y="35" type="curve" smooth="yes"/>
      <point x="94" y="63"/>
      <point x="70" y="83"/>
      <point x="22" y="83" type="curve" smooth="yes"/>
      <point x="-26" y="83"/>
      <point x="-50" y="63"/>
    </contour>
    <contour>
      <point x="-30" y="237" type="curve" smooth="yes"/>
      <point x="-30" y="209"/>
      <point x="-6" y="198"/>
      <point x="22" y="198" type="curve" smooth="yes"/>
      <point x="50" y="198"/>
      <point x="74" y="209"/>
      <point x="74" y="237" type="curve" smooth="yes"/>
      <point x="74" y="265"/>
      <point x="50" y="278"/>
      <point x="22" y="278" type="curve" smooth="yes"/>
      <point x="-6" y="278"/>
      <point x="-30" y="265"/>
    </contour>
    <contour>
      <point x="-160" y="247" type="curve" smooth="yes"/>
      <point x="-160" y="324"/>
      <point x="-95" y="393"/>
      <point x="22" y="393" type="curve" smooth="yes"/>
      <point x="139" y="393"/>
      <point x="204" y="324"/>
      <point x="204" y="247" type="curve" smooth="yes"/>
      <point x="204" y="200"/>
      <point x="179" y="164"/>
      <point x="133" y="143" type="curve"/>
      <point x="189" y="124"/>
      <point x="224" y="87"/>
      <point x="224" y="25" type="curve" smooth="yes"/>
      <point x="224" y="-82"/>
      <point x="139" y="-127"/>
      <point x="22" y="-127" type="curve" smooth="yes"/>
      <point x="-95" y="-127"/>
      <point x="-180" y="-72"/>
      <point x="-180" y="25" type="curve" smooth="yes"/>
      <point x="-180" y="88"/>
      <point x="-144" y="126"/>
      <point x="-86" y="144" type="curve"/>
      <point x="-134" y="167"/>
      <point x="-160" y="205"/>
    </contour>
  </outline>
</glyph>
<glyph name="colon" format="1">
  <advance width="291"/>
  <unicode hex="003A"/>
  <outline>
    <contour>
      <point x="-65" y="140" type="line"/>
      <point x="-170" y="245" type="line"/>
      <point x="-65" y="351" type="line"/>
      <point x="41" y="245" type="line"/>
    </contour>
    <contour>
      <point x="-65" y="-145" type="line"/>
      <point x="-170" y="-40" type="line"/>
      <point x="-65" y="66" type="line"/>
      <point x="41" y="-40" type="line"/>
    </contour>
  </outline>
</glyph>
<glyph name="equal" format="1">
  <advance width="560"/>
  <unicode hex="003D"/>
  <outline>
    <contour>
      <point x="-125" y="-7" type="line"/>
      <point x="-125" y="103" type="line"/>
      <point x="265" y="103" type="line"/>
      <point x="265" y="-7" type="line"/>
    </contour>
    <contour>
      <point x="-125" y="173" type="line"/>
      <point x="-125" y="283" type="line"/>
      <point x="265" y="283" type="line"/>
      <point x="265" y="173" type="line"/>
    </contour>
  </outline>
</glyph>
<glyph name="A" format="1">
  <advance width="580"/>
  <unicode hex="0041"/>
  <outline>
    <contour>
      <point x="-200" y="-117" type="line"/>
      <point x="0" y="383" type="line"/>
      <point x="160" y="383" type="line"/>
      <point x="360" y="-117" type="line"/>
      <point x="210" y="-117" type="line"/>
      <point x="179" y="-32" type="line"/>
      <point x="-19" y="-32" type="line"/>
      <point x="-50" y="-117" type="line"/>
    </contour>
    <contour>
      <point x="80" y="244" type="line"/>
      <point x="22" y="83" type="line"/>
      <point x="138" y="83" type="line"/>
    </contour>
  </outline>
</glyph>
<glyph name="C" format="1">
  <advance width="515"/>
  <unicode hex="0043"/>
  <outline>
    <contour>
      <point x="-35" y="133" type="curve" smooth="yes"/>
      <point x="-35" y="40"/>
      <point x="38" y="-12"/>
      <point x="95" y="-12" type="curve" smooth="yes"/>
      <point x="156" y="-12"/>
      <point x="200" y="11"/>
      <point x="225" y="44" type="curve"/>
      <point x="265" y="-83" type="line"/>
      <point x="233" y="-115"/>
      <point x="186" y="-137"/>
      <point x="105" y="-137" type="curve" smooth="yes"/>
      <point x="-70" y="-137"/>
      <point x="-180" y="-16"/>
      <point x="-180" y="133" type="curve" smooth="yes"/>
      <point x="-180" y="282"/>
      <point x="-70" y="403"/>
      <point x="105" y="403" type="curve" smooth="yes"/>
      <point x="186" y="403"/>
      <point x="233" y="381"/>
      <point x="265" y="349" type="curve"/>
      <point x="225" y="222" type="line"/>
      <point x="200" y="255"/>
      <point x="156" y="278"/>
      <point x="95" y="278" type="curve" smooth="yes"/>
      <point x="38" y="278"/>
      <point x="-35" y="226"/>
    </contour>
  </outline>
</glyph>
<glyph name="E" format="1">
  <advance width="455"/>
  <unicode hex="0045"/>
  <outline>
    <contour>
      <point x="-165" y="-117" type="curve"/>
      <point x="-165" y="383" type="line"/>
      <point x="-38" y="383"/>
      <point x="88" y="383"/>
      <point x="215" y="383" type="curve"/>
      <point x="215" y="268" type="line"/>
      <point x="-25" y="268" type="line"/>
      <point x="-25" y="193" type="line"/>
      <point x="185" y="193" type="line"/>
      <point x="185" y="78" type="line"/>
      <point x="-25" y="78" type="line"/>
      <point x="-25" y="3" type="line"/>
      <point x="215" y="3" type="line"/>
      <point x="215" y="-117" type="line"/>
      <point x="88" y="-117"/>
      <point x="-38" y="-117"/>
    </contour>
  </outline>
</glyph>
<glyph name="G" format="1">
  <advance width="555"/>
  <unicode hex="0047"/>
  <outline>
    <contour>
      <point x="-35" y="133" type="curve" smooth="yes"/>
      <point x="-35" y="40"/>
      <point x="38" y="-12"/>
      <point x="95" y="-12" type="curve" smooth="yes"/>
      <point x="129" y="-12"/>
      <point x="157" y="-5"/>
      <point x="180" y="7" type="curve"/>
      <point x="180" y="78" type="line"/>
      <point x="70" y="78" type="line"/>
      <point x="70" y="173" type="line"/>
      <point x="310" y="173" type="line"/>
      <point x="310" y="-43" type="line"/>
      <point x="258" y="-95"/>
      <point x="176" y="-137"/>
      <point x="95" y="-137" type="curve" smooth="yes"/>
      <point x="-60" y="-137"/>
      <point x="-180" y="-16"/>
      <point x="-180" y="133" type="curve" smooth="yes"/>
      <point x="-180" y="282"/>
      <point x="-70" y="403"/>
      <point x="105" y="403" type="curve" smooth="yes"/>
      <point x="186" y="403"/>
      <point x="233" y="381"/>
      <point x="265" y="349" type="curve"/>
      <point x="225" y="222" type="line"/>
      <point x="200" y="255"/>
      <point x="156" y="278"/>
      <point x="95" y="278" type="curve" smooth="yes"/>
      <point x="38" y="278"/>
      <point x="-35" y="226"/>
    </contour>
  </outline>
</glyph>
<glyph name="J" format="1">
  <advance width="319"/>
  <unicode hex="004A"/>
  <outline>
    <contour>
      <point x="-76" y="-107" type="curve" smooth="yes"/>
      <point x="-76" y="383" type="line"/>
      <point x="64" y="383" type="line"/>
      <point x="64" y="-147" type="line" smooth="yes"/>
      <point x="64" y="-244"/>
      <point x="-26" y="-299"/>
      <point x="-103" y="-299" type="curve" smooth="yes"/>
      <point x="-170" y="-299"/>
      <point x="-210" y="-279"/>
      <point x="-260" y="-232" type="curve"/>
      <point x="-210" y="-127" type="line"/>
      <point x="-170" y="-165"/>
      <point x="-141" y="-179"/>
      <point x="-123" y="-179" type="curve" smooth="yes"/>
      <point x="-95" y="-179"/>
      <point x="-76" y="-165"/>
    </contour>
  </outline>
</glyph>
<glyph name="T" format="1">
  <advance width="480"/>
  <unicode hex="0054"/>
  <outline>
    <contour>
      <point x="-190" y="263" type="line"/>
      <point x="-190" y="383" type="line"/>
      <point x="250" y="383" type="line"/>
      <point x="250" y="263" type="line"/>
      <point x="100" y="263" type="line"/>
      <point x="100" y="-117" type="line"/>
      <point x="-40" y="-117" type="line"/>
      <point x="-40" y="263" type="line"/>
    </contour>
  </outline>
</glyph>
<glyph name="V" format="1">
  <advance width="580"/>
  <unicode hex="0056"/>
  <outline>
    <contour>
      <point x="360" y="383" type="line"/>
      <point x="160" y="-117" type="line"/>
      <point x="0" y="-117" type="line"/>
      <point x="-200" y="383" type="line"/>
      <point x="-50" y="383" type="line"/>
      <point x="80" y="22" type="line"/>
      <point x="210" y="383" type="line"/>
    </contour>
  </outline>
</glyph>
<glyph name="Y" format="1">
  <advance width="540"/>
  <unicode hex="0059"/>
  <outline>
    <contour>
      <point x="130" y="63" type="line"/>
      <point x="130" y="-117" type="line"/>
      <point x="-10" y="-117" type="line"/>
      <point x="-10" y="63" type="line"/>
      <point x="-200" y="383" type="line"/>
      <point x="-40" y="383" type="line"/>
      <point x="60" y="183" type="line"/>
      <point x="160" y="383" type="line"/>
      <point x="320" y="383" type="line"/>
    </contour>
  </outline>
</glyph>
<glyph name="c" format="1">
  <advance width="404"/>
  <unicode hex="0063"/>
  <outline>
    <contour>
      <point x="-175" y="75" type="curve" smooth="yes"/>
      <point x="-175" y="202"/>
      <point x="-80" y="278"/>
      <point x="37" y="278" type="curve" smooth="yes"/>
      <point x="75" y="278"/>
      <point x="123" y="267"/>
      <point x="149" y="243" type="curve"/>
      <point x="109" y="140" type="line"/>
      <point x="97" y="155"/>
      <point x="70" y="168"/>
      <point x="47" y="168" type="curve" smooth="yes"/>
      <point x="-11" y="168"/>
      <point x="-40" y="123"/>
      <point x="-40" y="75" type="curve" smooth="yes"/>
      <point x="-40" y="27"/>
      <point x="-11" y="-17"/>
      <point x="47" y="-17" type="curve" smooth="yes"/>
      <point x="70" y="-17"/>
      <point x="97" y="-3"/>
      <point x="109" y="11" type="curve"/>
      <point x="149" y="-92" type="line"/>
      <point x="123" y="-116"/>
      <point x="75" y="-127"/>
      <point x="37" y="-127" type="curve" smooth="yes"/>
      <point x="-80" y="-127"/>
      <point x="-175" y="-42"/>
    </contour>
  </outline>
</glyph>
<glyph name="d" format="1">
  <advance width="499"/>
  <unicode hex="0064"/>
  <outline>
    <contour>
      <point x="249" y="-117" type="line"/>
      <point x="114" y="-117" type="line"/>
      <point x="114" y="-75" type="line"/>
      <point x="83" y="-107"/>
      <point x="42" y="-127"/>
      <point x="-3" y="-127" type="curve" smooth="yes"/>
      <point x="-110" y="-127"/>
      <point x="-175" y="-42"/>
      <point x="-175" y="75" type="curve" smooth="yes"/>
      <point x="-175" y="192"/>
      <point x="-110" y="278"/>
      <point x="-3" y="278" type="curve" smooth="yes"/>
      <point x="42" y="278"/>
      <point x="83" y="260"/>
      <point x="114" y="229" type="curve"/>
      <point x="114" y="413" type="line"/>
      <point x="249" y="413" type="line"/>
    </contour>
    <contour>
      <point x="114" y="134" type="line"/>
      <point x="95" y="158"/>
      <point x="66" y="173"/>
      <point x="37" y="173" type="curve" smooth="yes"/>
      <point x="-11" y="173"/>
      <point x="-40" y="133"/>
      <point x="-40" y="75" type="curve" smooth="yes"/>
      <point x="-40" y="17"/>
      <point x="-11" y="-22"/>
      <point x="37" y="-22" type="curve" smooth="yes"/>
      <point x="66" y="-22"/>
      <point x="95" y="-8"/>
      <point x="114" y="16" type="curve"/>
    </contour>
  </outline>
</glyph>
<glyph name="e" format="1">
  <advance width="469"/>
  <unicode hex="0065"/>
  <outline>
    <contour>
      <point x="-170" y="75" type="curve" smooth="yes"/>
      <point x="-170" y="202"/>
      <point x="-85" y="278"/>
      <point x="32" y="278" type="curve" smooth="yes"/>
      <point x="149" y="278"/>
      <point x="224" y="202"/>
      <point x="224" y="95" type="curve"/>
      <point x="-18" y="6" type="line"/>
      <point x="-2" y="-14"/>
      <point x="21" y="-27"/>
      <point x="52" y="-27" type="curve" smooth="yes"/>
      <point x="95" y="-27"/>
      <point x="122" y="-3"/>
      <point x="144" y="31" type="curve"/>
      <point x="204" y="-62" type="line"/>
      <point x="168" y="-106"/>
      <point x="110" y="-127"/>
      <point x="42" y="-127" type="curve" smooth="yes"/>
      <point x="-75" y="-127"/>
      <point x="-170" y="-52"/>
    </contour>
    <contour>
      <point x="108" y="149" type="line"/>
      <point x="93" y="169"/>
      <point x="69" y="182"/>
      <point x="35" y="182" type="curve" smooth="yes"/>
      <point x="-20" y="182"/>
      <point x="-42" y="136"/>
      <point x="-45" y="91" type="curve"/>
    </contour>
  </outline>
</glyph>
<glyph name="g" format="1">
  <advance width="489"/>
  <unicode hex="0067"/>
  <outline>
    <contour>
      <point x="104" y="-59" type="line"/>
      <point x="73" y="-89"/>
      <point x="32" y="-107"/>
      <point x="-13" y="-107" type="curve" smooth="yes"/>
      <point x="-120" y="-107"/>
      <point x="-175" y="-22"/>
      <point x="-175" y="85" type="curve" smooth="yes"/>
      <point x="-175" y="192"/>
      <point x="-120" y="278"/>
      <point x="-13" y="278" type="curve" smooth="yes"/>
      <point x="32" y="278"/>
      <point x="73" y="262"/>
      <point x="104" y="233" type="curve"/>
      <point x="104" y="268" type="line"/>
      <point x="239" y="268" type="line"/>
      <point x="239" y="-157" type="line" smooth="yes"/>
      <point x="239" y="-254"/>
      <point x="144" y="-309"/>
      <point x="57" y="-309" type="curve" smooth="yes"/>
      <point x="-20" y="-309"/>
      <point x="-90" y="-284"/>
      <point x="-150" y="-247" type="curve"/>
      <point x="-110" y="-147" type="line"/>
      <point x="-60" y="-185"/>
      <point x="-1" y="-199"/>
      <point x="37" y="-199" type="curve" smooth="yes"/>
      <point x="85" y="-199"/>
      <point x="104" y="-185"/>
      <point x="104" y="-127" type="curve" smooth="yes"/>
    </contour>
    <contour>
      <point x="104" y="141" type="line"/>
      <point x="85" y="162"/>
      <point x="56" y="173"/>
      <point x="27" y="173" type="curve" smooth="yes"/>
      <point x="-21" y="173"/>
      <point x="-40" y="133"/>
      <point x="-40" y="85" type="curve" smooth="yes"/>
      <point x="-40" y="37"/>
      <point x="-21" y="-2"/>
      <point x="27" y="-2" type="curve" smooth="yes"/>
      <point x="56" y="-2"/>
      <point x="85" y="9"/>
      <point x="104" y="30" type="curve"/>
    </contour>
  </outline>
</glyph>
<glyph name="k" format="1">
  <advance width="485"/>
  <unicode hex="006B"/>
  <outline>
    <contour>
      <point x="-170" y="-117" type="line"/>
      <point x="-170" y="413" type="line"/>
      <point x="-35" y="413" type="line"/>
      <point x="-35" y="133" type="line"/>
      <point x="100" y="268" type="line"/>
      <point x="265" y="268" type="line"/>
      <point x="105" y="108" type="line"/>
      <point x="275" y="-117" type="line"/>
      <point x="110" y="-117" type="line"/>
      <point x="-35" y="75" type="line"/>
      <point x="-35" y="-117" type="line"/>
    </contour>
  </outline>
</glyph>
<glyph name="t" format="1">
  <advance width="325"/>
  <unicode hex="0074"/>
  <outline>
    <contour>
      <point x="-190" y="168" type="line"/>
      <point x="-190" y="268" type="line"/>
      <point x="-120" y="268" type="line"/>
      <point x="-120" y="333" type="line"/>
      <point x="15" y="393" type="line"/>
      <point x="15" y="268" type="line"/>
      <point x="95" y="268" type="line"/>
      <point x="95" y="168" type="line"/>
      <point x="15" y="168" type="line"/>
      <point x="15" y="-117" type="line"/>
      <point x="-120" y="-117" type="line"/>
      <point x="-120" y="168" type="line"/>
    </contour>
  </outline>
</glyph>
<glyph name="u" format="1">
  <advance width="474"/>
  <unicode hex="0075"/>
  <outline>
    <contour>
      <point x="224" y="268" type="line"/>
      <point x="224" y="-117" type="line"/>
      <point x="89" y="-117" type="line"/>
      <point x="89" y="-45" type="line"/>
      <point x="56" y="-95"/>
      <point x="7" y="-127"/>
      <point x="-38" y="-127" type="curve" smooth="yes"/>
      <point x="-125" y="-127"/>
      <point x="-170" y="-71"/>
      <point x="-170" y="26" type="curve" smooth="yes"/>
      <point x="-170" y="268" type="line"/>
      <point x="-35" y="268" type="line"/>
      <point x="-35" y="56" type="line" smooth="yes"/>
      <point x="-35" y="-2"/>
      <point x="-16" y="-22"/>
      <point x="12" y="-22" type="curve" smooth="yes"/>
      <point x="41" y="-22"/>
      <point x="70" y="0"/>
      <point x="89" y="28" type="curve"/>
      <point x="89" y="268" type="line"/>
    </contour>
  </outline>
</glyph>
<glyph name="v" format="1">
  <advance width="465"/>
  <unicode hex="0076"/>
  <outline>
    <contour>
      <point x="-50" y="-117" type="line"/>
      <point x="-200" y="268" type="line"/>
      <point x="-55" y="268" type="line"/>
      <point x="26" y="-16" type="line"/>
      <point x="100" y="268" type="line"/>
      <point x="245" y="268" type="line"/>
      <point x="105" y="-117" type="line"/>
    </contour>
  </outline>
</glyph>
<glyph name="x" format="1">
  <advance width="465"/>
  <unicode hex="0078"/>
  <outline>
    <contour>
      <point x="22" y="181" type="line"/>
      <point x="90" y="268" type="line"/>
      <point x="245" y="268" type="line"/>
      <point x="100" y="82" type="line"/>
      <point x="255" y="-117" type="line"/>
      <point x="100" y="-117" type="line"/>
      <point x="22" y="-18" type="line"/>
      <point x="-55" y="-117" type="line"/>
      <point x="-210" y="-117" type="line"/>
      <point x="-55" y="82" type="line"/>
      <point x="-200" y="268" type="line"/>
      <point x="-45" y="268" type="line"/>
    </contour>
  </outline>
</glyph>
<glyph name="z" format="1">
  <advance width="425"/>
  <unicode hex="007A"/>
  <outline>
    <contour>
      <point x="-155" y="138" type="line"/>
      <point x="-155" y="268" type="line"/>
      <point x="-35" y="268"/>
      <point x="85" y="268"/>
      <point x="205" y="268" type="curve"/>
      <point x="26" y="13" type="line"/>
      <point x="180" y="13" type="line"/>
      <point x="180" y="-117" type="line"/>
      <point x="53" y="-117"/>
      <point x="-73" y="-117"/>
      <point x="-200" y="-117" type="curve"/>
      <point x="-21" y="138" type="line"/>
    </contour>
  </outline>
</glyph>
